<?xml version="1.0" standalone="no"?><!DOCTYPE svg PUBLIC "-//W3C//DTD SVG 1.1//EN" "http://www.w3.org/Graphics/SVG/1.1/DTD/svg11.dtd"><svg t="1653820388401" class="icon" viewBox="0 0 1024 1024" version="1.1" xmlns="http://www.w3.org/2000/svg" p-id="36569" xmlns:xlink="http://www.w3.org/1999/xlink" width="200" height="200"><defs><style type="text/css">@font-face { font-family: feedback-iconfont; src: url("//at.alicdn.com/t/font_1031158_u69w8yhxdu.woff2?t=1630033759944") format("woff2"), url("//at.alicdn.com/t/font_1031158_u69w8yhxdu.woff?t=1630033759944") format("woff"), url("//at.alicdn.com/t/font_1031158_u69w8yhxdu.ttf?t=1630033759944") format("truetype"); }
</style></defs><path d="M250.400768 375.689216L192.065536 290.0992l130.244608-88.752128 57.360384 84.160512-22.859776 15.572992-41.783296-61.313024-84.533248 57.606144 42.76224 62.742528zM768.098304 387.211264l-22.85568-15.572992L795.8528 297.373696l-84.533248-57.606144-46.227456 67.82976-22.85568-15.572992 61.800448-90.677248 130.244608 88.752128z" fill="#ED743B" p-id="36570"></path><path d="M503.988224 949.542912c-192.647168 0-349.384704-156.73344-349.384704-349.3888 0-192.643072 156.73344-349.376512 349.384704-349.376512 192.651264 0 349.3888 156.73344 349.3888 349.376512-0.004096 192.65536-156.737536 349.3888-349.3888 349.3888z m0-671.113216c-177.401856 0-321.728512 144.32256-321.728512 321.724416s144.326656 321.732608 321.728512 321.732608 321.732608-144.330752 321.732608-321.732608-144.330752-321.724416-321.732608-321.724416z" fill="#429DD7" p-id="36571"></path><path d="M503.988224 875.15136c-151.629824 0-274.989056-123.363328-274.989056-274.993152s123.359232-274.98496 274.989056-274.98496 274.993152 123.355136 274.993152 274.98496-123.363328 274.993152-274.993152 274.993152z m0-531.546112c-141.463552 0-256.55296 115.089408-256.55296 256.548864 0 141.467648 115.089408 256.557056 256.55296 256.557056 141.467648 0 256.557056-115.089408 256.557056-256.557056 0-141.45536-115.089408-256.548864-256.557056-256.548864z" fill="#429DD7" p-id="36572"></path><path d="M494.768128 335.900672h18.436096v49.635328h-18.436096zM494.768128 816.295936h18.436096v49.635328h-18.436096zM238.215168 590.938112h45.662208v18.436096H238.215168zM724.094976 590.938112h45.666304v18.436096h-45.666304zM506.22464 662.790144c-37.629952 0-68.23936-30.6176-68.23936-68.243456s30.613504-68.235264 68.23936-68.235264 68.235264 30.605312 68.235264 68.235264-30.613504 68.243456-68.235264 68.243456z m0-118.042624c-27.459584 0-49.803264 22.34368-49.803264 49.799168 0 27.46368 22.34368 49.80736 49.803264 49.80736 27.459584 0 49.799168-22.34368 49.799168-49.80736 0-27.455488-22.339584-49.799168-49.799168-49.799168z" fill="#429DD7" p-id="36573"></path><path d="M624.0256 436.350976l14.340096 11.59168-86.818816 107.380736-14.336-11.59168zM630.296576 197.484544H386.605056V82.968576h243.69152v114.515968z m-216.039424-27.652096h188.383232V110.624768h-188.383232v59.20768z" fill="#429DD7" p-id="36574"></path><path d="M448.966656 183.656448h27.656192V267.50976h-27.656192zM551.415808 183.656448h27.656192V267.50976h-27.656192z" fill="#429DD7" p-id="36575"></path></svg>