<?xml version="1.0" standalone="no"?><!DOCTYPE svg PUBLIC "-//W3C//DTD SVG 1.1//EN" "http://www.w3.org/Graphics/SVG/1.1/DTD/svg11.dtd"><svg t="1653818556331" class="icon" viewBox="0 0 1024 1024" version="1.1" xmlns="http://www.w3.org/2000/svg" p-id="5245" xmlns:xlink="http://www.w3.org/1999/xlink" width="200" height="200"><defs><style type="text/css">@font-face { font-family: feedback-iconfont; src: url("//at.alicdn.com/t/font_1031158_u69w8yhxdu.woff2?t=1630033759944") format("woff2"), url("//at.alicdn.com/t/font_1031158_u69w8yhxdu.woff?t=1630033759944") format("woff"), url("//at.alicdn.com/t/font_1031158_u69w8yhxdu.ttf?t=1630033759944") format("truetype"); }
</style></defs><path d="M0 0h0.746667L0 0.746667V0zM420.373333 208.426667c-54.08-56.64 5.44-111.786667 39.573334-154.24 1.28 7.893333 3.733333 23.68 4.906666 31.466666-38.08 42.773333 13.546667 91.413333 50.026667 113.6 26.453333 27.946667 77.546667 21.866667 87.786667 65.92-2.986667 5.226667-9.173333 15.786667-12.266667 21.013334-1.6-4.693333-4.8-14.186667-6.4-18.986667-18.346667 15.146667-36.693333 36.373333-34.56 61.76 1.066667 12.16 3.093333 24.106667 6.293333 35.84 24.96 3.733333 24.853333-28.053333 36.16-43.093333 6.186667 34.133333 16.96 67.2 31.786667 98.56-27.733333 46.293333-131.093333 35.84-130.986667-27.093334-2.986667-29.866667 31.893333-47.893333 27.52-78.613333 13.973333-18.346667 34.453333-33.92 38.933334-57.813333-48.213333-45.546667-96.746667-93.226667-133.333334-146.88-26.88 26.986667-17.386667 71.253333 11.306667 92.586666 14.826667 18.346667 54.72 30.293333 39.68 59.733334l-23.146667-1.28c-15.68-38.72-53.226667-52.16-92.693333-48.746667 20.16 12.8 59.733333 20.48 51.733333 52.48-3.84 31.04-40.533333 78.293333 8.426667 90.453333l-2.133333 20.053334c-16.32-11.733333-32.106667-24.32-48.213334-36.373334 1.386667 20.266667 3.626667 40.426667 6.4 60.586667-32.64-26.346667-22.4-85.546667 14.186667-105.28 28.266667-26.773333 6.826667-74.986667-32.533333-71.253333-0.106667-3.306667-0.426667-9.92-0.533334-13.226667 20.693333-1.066667 41.386667 0 62.08-1.173333z" fill="#FEA15C" p-id="5246"></path><path d="M440.32 396.266667c26.56 9.493333 43.306667 33.173333 50.346667 59.84-20.16 1.706667-40.426667 2.24-60.586667 0.746666 1.386667-20.48 5.013333-40.746667 10.24-60.586666z" fill="#FEA15C" p-id="5247"></path><path d="M425.813333 109.866667c36.586667 53.653333 85.12 101.333333 133.333334 146.88-4.48 23.893333-24.96 39.466667-38.933334 57.813333-17.066667 13.013333-31.573333 31.146667-53.866666 34.773333-2.56-29.546667-0.853333-59.413333 10.453333-87.146666 15.04-29.44-24.853333-41.386667-39.68-59.733334-28.693333-21.333333-38.186667-65.6-11.306667-92.586666zM549.44 328.96c-2.133333-25.386667 16.213333-46.613333 34.56-61.76 1.6 4.8 4.8 14.293333 6.4 18.986667-11.2 16.426667-26.88 29.013333-40.96 42.773333zM370.773333 338.773333c16.106667 12.053333 31.893333 24.64 48.213334 36.373334 1.493333 7.786667 2.666667 15.573333 3.413333 23.466666-8.213333 6.4-16.64 12.48-25.386667 18.133334-12.266667-1.173333-18.88-6.933333-19.84-17.386667-2.773333-20.16-5.013333-40.32-6.4-60.586667z" fill="#FEDC76" p-id="5248"></path><path d="M360.96 212.16c39.466667-3.413333 77.013333 10.026667 92.693333 48.746667 10.666667 36.373333-20.693333 62.826667-32.533333 94.186666-48.96-12.16-12.266667-59.413333-8.426667-90.453333 8-32-31.573333-39.68-51.733333-52.48z" fill="#FEE579" p-id="5249"></path><path d="M453.653333 260.906667l23.146667 1.28c-11.306667 27.733333-13.013333 57.6-10.453333 87.146666 22.293333-3.626667 36.8-21.76 53.866666-34.773333 4.373333 30.72-30.506667 48.746667-27.52 78.613333-0.106667 62.933333 103.253333 73.386667 130.986667 27.093334-14.826667-31.36-25.6-64.426667-31.786667-98.56-11.306667 15.04-11.2 46.826667-36.16 43.093333-3.2-11.733333-5.226667-23.68-6.293333-35.84 14.08-13.76 29.76-26.346667 40.96-42.773333 3.093333-5.226667 9.28-15.786667 12.266667-21.013334 0.746667 11.52 1.493333 23.04 2.346666 34.453334 8.96 2.24 26.986667 6.613333 35.946667 8.746666-27.84 7.786667-47.573333 40.533333-16.853333 59.306667 40 23.466667 10.773333 88.64-30.08 87.893333-48.106667 3.306667-95.466667 9.813333-142.933334 17.6a80.778667 80.778667 0 0 1-35.946666-12.906666c-6.613333-14.293333-12.906667-28.693333-18.133334-43.52 8.746667-5.653333 17.173333-11.733333 25.386667-18.133334-0.746667-7.893333-1.92-15.68-3.413333-23.466666l2.133333-20.053334c11.84-31.36 43.2-57.813333 32.533333-94.186666m-13.333333 135.36c-5.226667 19.84-8.853333 40.106667-10.24 60.586666 20.16 1.493333 40.426667 0.96 60.586667-0.746666-7.04-26.666667-23.786667-50.346667-50.346667-59.84z" fill="#E9991E" p-id="5250"></path><path d="M451.093333 473.173333c47.466667-7.786667 94.826667-14.293333 142.933334-17.6-5.973333 3.413333-17.92 10.346667-23.893334 13.76 11.626667 80.96 22.72 163.306667 39.573334 244.8 3.2 72 75.2 132.693333 46.186666 205.76 9.6 48.533333-47.253333 64.213333-81.386666 41.493334-34.773333-160.746667-77.226667-322.133333-104.746667-483.413334-4.693333-1.173333-13.973333-3.626667-18.666667-4.8m73.92 5.333334c-4.586667 35.413333 1.386667 71.573333 13.226667 105.066666l23.04 4.693334c-12.053333-36.16-10.133333-80.32-36.266667-109.76m60.48 203.733333c-0.213333-18.453333-5.013333-36.586667-12.8-53.226667-27.52 11.733333-14.506667 52.693333 12.8 53.226667m5.44 93.866667c19.306667 37.76 18.453333 100.266667 58.666667 118.826666-9.92-42.346667-22.506667-91.52-58.666667-118.826666z" fill="#832101" p-id="5251"></path><path d="M525.013333 478.506667c26.133333 29.44 24.213333 73.6 36.266667 109.76l-23.04-4.693334c-11.84-33.493333-17.813333-69.653333-13.226667-105.066666zM585.493333 682.24c-27.306667-0.533333-40.32-41.493333-12.8-53.226667 7.786667 16.64 12.586667 34.773333 12.8 53.226667zM590.933333 776.106667c36.16 27.306667 48.746667 76.48 58.666667 118.826666-40.213333-18.56-39.36-81.066667-58.666667-118.826666z" fill="#94370F" p-id="5252"></path></svg>