<?xml version="1.0" standalone="no"?><!DOCTYPE svg PUBLIC "-//W3C//DTD SVG 1.1//EN" "http://www.w3.org/Graphics/SVG/1.1/DTD/svg11.dtd"><svg t="1653818785033" class="icon" viewBox="0 0 1024 1024" version="1.1" xmlns="http://www.w3.org/2000/svg" p-id="6320" xmlns:xlink="http://www.w3.org/1999/xlink" width="200" height="200"><defs><style type="text/css">@font-face { font-family: feedback-iconfont; src: url("//at.alicdn.com/t/font_1031158_u69w8yhxdu.woff2?t=1630033759944") format("woff2"), url("//at.alicdn.com/t/font_1031158_u69w8yhxdu.woff?t=1630033759944") format("woff"), url("//at.alicdn.com/t/font_1031158_u69w8yhxdu.ttf?t=1630033759944") format("truetype"); }
</style></defs><path d="M845.5 271.6m-29.3 0a29.3 29.3 0 1 0 58.6 0 29.3 29.3 0 1 0-58.6 0Z" fill="#F2BC36" p-id="6321"></path><path d="M774.1 256.1c-8.1 0-14.6-6.6-14.6-14.6 0-8.1 6.6-14.6 14.6-14.6s14.6 6.6 14.6 14.6c0 8.1-6.5 14.6-14.6 14.6zM845.5 300.8c-16.1 0-29.3-13.1-29.3-29.3 0-16.1 13.1-29.3 29.3-29.3 16.1 0 29.3 13.1 29.3 29.3s-13.1 29.3-29.3 29.3z m0-49.7c-11.3 0-20.5 9.2-20.5 20.5s9.2 20.5 20.5 20.5 20.5-9.2 20.5-20.5-9.2-20.5-20.5-20.5z" fill="#471A1A" p-id="6322"></path><path d="M441.6 451.9l-162.7-94c-11-6.3-14.8-20.5-8.4-31.5l46.4-80.4c6.3-11 20.5-14.8 31.5-8.4l162.7 94c11 6.3 14.8 20.5 8.4 31.5l-46.4 80.4c-6.3 10.9-20.5 14.7-31.5 8.4z" fill="#F2BC36" p-id="6323"></path><path d="M450.8 457.8c-5.8 0-11.7-1.5-17.1-4.6l-152-87.8c-16.4-9.5-22.1-30.5-12.6-47l40.2-69.7c9.5-16.4 30.5-22.1 47-12.6l152 87.8c16.4 9.5 22.1 30.6 12.6 47l-40.2 69.7c-6.4 11.1-18 17.2-29.9 17.2z m-12-13.4c11.5 6.7 26.3 2.7 33-8.8l40.2-69.7c6.7-11.5 2.7-26.3-8.8-33l-152-87.8c-11.5-6.6-26.3-2.7-33 8.8L278 323.6c-6.7 11.5-2.7 26.3 8.8 33l152 87.8z" fill="#471A1A" p-id="6324"></path><path d="M583.4 451.3l160.8-92.8c11.5-6.7 15.5-21.5 8.9-33L707.7 247c-6.7-11.5-21.5-15.5-33-8.9L513.9 331c-11.5 6.7-15.5 21.5-8.9 33l45.3 78.5c6.7 11.5 21.5 15.5 33.1 8.8z" fill="#F2BC36" p-id="6325"></path><path d="M573.2 457.8c-11.9 0-23.5-6.2-29.8-17.2L503.1 371c-9.5-16.4-3.8-37.5 12.6-47l152-87.8c16.4-9.5 37.5-3.8 47 12.6l40.2 69.7c9.5 16.4 3.8 37.5-12.6 47l-152 87.8c-5.4 3-11.3 4.5-17.1 4.5z m111.7-215.9c-4.1 0-8.2 1-12 3.2l-152 87.8c-11.5 6.7-15.5 21.5-8.8 33l40.2 69.7c6.7 11.5 21.4 15.5 33 8.8l152-87.8c11.5-6.7 15.5-21.4 8.8-33l-40.2-69.7c-4.5-7.7-12.7-12-21-12z" fill="#471A1A" p-id="6326"></path><path d="M743.7 787.2H280.3c-21.5 0-38.9-17.4-38.9-38.9V491c0-18.2 14.7-32.9 32.9-32.9h475.4c18.2 0 32.9 14.7 32.9 32.9v257.3c0 21.5-17.4 38.9-38.9 38.9z" fill="#FF2929" p-id="6327"></path><path d="M468.1 465.4h87.8v321.8h-87.8z" fill="#F2BC36" p-id="6328"></path><path d="M561 792.4h-98V460.3h98v332.1z m-87.8-10.3h77.5V470.5h-77.5v311.6z" fill="#471A1A" p-id="6329"></path><path d="M713.1 461.8v329.1H735c24.2 0 43.9-19.6 43.9-43.9V461.8h-65.8z" fill="#E22323" p-id="6330"></path><path d="M738.7 792.4H285.3c-27 0-49-22-49-49V453h551.5v290.4c0 27-22 49-49.1 49zM246.5 463.2v280.1c0 21.4 17.4 38.8 38.8 38.8h453.5c21.4 0 38.8-17.4 38.8-38.8V463.2H246.5z" fill="#471A1A" p-id="6331"></path><path d="M780.2 471.1H245.1c-13.7 0-25-11.2-25-25v-96.3c0-13.7 11.2-25 25-25h535.2c13.7 0 25 11.2 25 25v96.3c-0.1 13.7-11.3 25-25.1 25z" fill="#FF2929" p-id="6332"></path><path d="M771.7 330.1h-58.5v146.3h58.5c16.1 0 29.3-13.2 29.3-29.3v-87.8c-0.1-16-13.3-29.2-29.3-29.2z" fill="#E22323" p-id="6333"></path><path d="M775.3 477.9H248.7c-19 0-34.4-15.4-34.4-34.4v-87.8c0-19 15.4-34.4 34.4-34.4h526.6c19 0 34.4 15.4 34.4 34.4v87.8c0 18.9-15.4 34.4-34.4 34.4zM248.7 331.6c-13.3 0-24.1 10.8-24.1 24.1v87.8c0 13.3 10.8 24.1 24.1 24.1h526.6c13.3 0 24.1-10.8 24.1-24.1v-87.8c0-13.3-10.8-24.1-24.1-24.1H248.7z" fill="#471A1A" p-id="6334"></path><path d="M512 465.4l54.9 43.9h3.6V326.4h-117v182.9h3.6z" fill="#F2BC36" p-id="6335"></path><path d="M575.6 514.4h-10.5L512 472l-53.1 42.4h-10.5V321.3h127.3v193.1h-0.1zM512 458.9l53.4 42.7v-170H458.6v170l53.4-42.7z" fill="#471A1A" p-id="6336"></path></svg>