<?xml version="1.0" standalone="no"?><!DOCTYPE svg PUBLIC "-//W3C//DTD SVG 1.1//EN" "http://www.w3.org/Graphics/SVG/1.1/DTD/svg11.dtd"><svg t="1653818797826" class="icon" viewBox="0 0 1024 1024" version="1.1" xmlns="http://www.w3.org/2000/svg" p-id="6630" xmlns:xlink="http://www.w3.org/1999/xlink" width="200" height="200"><defs><style type="text/css">@font-face { font-family: feedback-iconfont; src: url("//at.alicdn.com/t/font_1031158_u69w8yhxdu.woff2?t=1630033759944") format("woff2"), url("//at.alicdn.com/t/font_1031158_u69w8yhxdu.woff?t=1630033759944") format("woff"), url("//at.alicdn.com/t/font_1031158_u69w8yhxdu.ttf?t=1630033759944") format("truetype"); }
</style></defs><path d="M178.8 480V287.5h665V480" fill="#FFF061" p-id="6631"></path><path d="M853.8 480h-20V297.5h-645V480h-20V277.5h685z" fill="#6D5346" p-id="6632"></path><path d="M773.8 480v350H231.3V480" fill="#FFF061" p-id="6633"></path><path d="M783.8 840H221.3V480h20v340h522.5V480h20z" fill="#6D5346" p-id="6634"></path><path d="M458.8 830V287.5" fill="#FFF061" p-id="6635"></path><path d="M448.8 287.5h20V830h-20z" fill="#6D5346" p-id="6636"></path><path d="M546.3 287.5V830" fill="#FFF061" p-id="6637"></path><path d="M536.3 287.5h20V830h-20z" fill="#6D5346" p-id="6638"></path><path d="M430.5 226.3m-61.3 0a61.3 61.3 0 1 0 122.6 0 61.3 61.3 0 1 0-122.6 0Z" fill="#BBE4FF" p-id="6639"></path><path d="M430.5 297.5c-39.3 0-71.2-32-71.2-71.2s32-71.2 71.2-71.2 71.2 32 71.2 71.2-31.9 71.2-71.2 71.2z m0-122.5c-28.3 0-51.2 23-51.2 51.2s23 51.2 51.2 51.2 51.2-23 51.2-51.2-23-51.2-51.2-51.2z" fill="#6D5346" p-id="6640"></path><path d="M584.4 226.3m-61.3 0a61.3 61.3 0 1 0 122.6 0 61.3 61.3 0 1 0-122.6 0Z" fill="#BBE4FF" p-id="6641"></path><path d="M584.4 297.5c-39.3 0-71.2-32-71.2-71.2s32-71.2 71.2-71.2 71.2 32 71.2 71.2-31.9 71.2-71.2 71.2z m0-122.5c-28.3 0-51.2 23-51.2 51.2s23 51.2 51.2 51.2 51.2-23 51.2-51.2-22.9-51.2-51.2-51.2z" fill="#6D5346" p-id="6642"></path><path d="M458.8 480h-280" fill="#FFF061" p-id="6643"></path><path d="M178.8 470h280v20h-280z" fill="#6D5346" p-id="6644"></path><path d="M843.8 480H546.3" fill="#FFF061" p-id="6645"></path><path d="M546.3 470h297.5v20H546.3z" fill="#6D5346" p-id="6646"></path></svg>