<?xml version="1.0" standalone="no"?><!DOCTYPE svg PUBLIC "-//W3C//DTD SVG 1.1//EN" "http://www.w3.org/Graphics/SVG/1.1/DTD/svg11.dtd"><svg t="1653820526599" class="icon" viewBox="0 0 1024 1024" version="1.1" xmlns="http://www.w3.org/2000/svg" p-id="38516" xmlns:xlink="http://www.w3.org/1999/xlink" width="200" height="200"><defs><style type="text/css">@font-face { font-family: feedback-iconfont; src: url("//at.alicdn.com/t/font_1031158_u69w8yhxdu.woff2?t=1630033759944") format("woff2"), url("//at.alicdn.com/t/font_1031158_u69w8yhxdu.woff?t=1630033759944") format("woff"), url("//at.alicdn.com/t/font_1031158_u69w8yhxdu.ttf?t=1630033759944") format("truetype"); }
</style></defs><path d="M512 42.666667c163.157333 0 312.021333 83.968 397.354667 219.477333a42.666667 42.666667 0 0 1-72.192 45.482667A384 384 0 1 0 896 512a42.666667 42.666667 0 0 1 85.333333 0c0 259.2-210.133333 469.333333-469.333333 469.333333S42.666667 771.2 42.666667 512 252.8 42.666667 512 42.666667z" p-id="38517" fill="#dbdbdb"></path><path d="M644.693333 441.002667l-136.448-90.965334a85.333333 85.333333 0 0 0-132.693333 71.04v181.845334a85.333333 85.333333 0 0 0 132.693333 71.04l136.405334-90.965334a85.333333 85.333333 0 0 0 0-141.994666z m-183.765333-19.925334L597.333333 512l-136.405333 90.922667V421.12zM907.093333 176.768a42.666667 42.666667 0 0 1 84.48 10.666667l-0.64 4.949333-32 171.52a42.666667 42.666667 0 0 1-40.106666 34.816l-4.949334-0.085333-166.101333-12.245334a42.666667 42.666667 0 0 1 1.28-85.162666l4.992 0.085333 128 9.386667 25.002667-133.973334z" p-id="38518" fill="#dbdbdb"></path></svg>