<?xml version="1.0" standalone="no"?><!DOCTYPE svg PUBLIC "-//W3C//DTD SVG 1.1//EN" "http://www.w3.org/Graphics/SVG/1.1/DTD/svg11.dtd"><svg t="1653819624252" class="icon" viewBox="0 0 1024 1024" version="1.1" xmlns="http://www.w3.org/2000/svg" p-id="13568" xmlns:xlink="http://www.w3.org/1999/xlink" width="200" height="200"><defs><style type="text/css">@font-face { font-family: feedback-iconfont; src: url("//at.alicdn.com/t/font_1031158_u69w8yhxdu.woff2?t=1630033759944") format("woff2"), url("//at.alicdn.com/t/font_1031158_u69w8yhxdu.woff?t=1630033759944") format("woff"), url("//at.alicdn.com/t/font_1031158_u69w8yhxdu.ttf?t=1630033759944") format("truetype"); }
</style></defs><path d="M630.39 421.65m-330.55 0a330.55 330.55 0 1 0 661.1 0 330.55 330.55 0 1 0-661.1 0Z" fill="#FFE4CC" p-id="13569"></path><path d="M623 751c69.03-0.09 135.8 31.37 172.77 75.25l-18.72-512.87c-0.14-78.62-57.18-137.29-151.13-137.17-93.96 0.12-150.76 58.98-150.62 137.6l-16.52 512.45C495.54 782.03 553.73 751.09 623 751z" fill="#FFFFFF" p-id="13570"></path><path d="M795.77 839.09c-3.71 0-7.33-1.61-9.82-4.57-36.19-42.96-100.02-70.69-162.67-70.69h-0.26c-60.86 0.08-117.12 25.82-154.38 70.62-3.5 4.22-9.3 5.74-14.42 3.79a12.836 12.836 0 0 1-8.27-12.41l16.52-512.24c-0.02-42.32 15.61-80.44 44.04-107.36 29.55-27.99 70.84-42.81 119.41-42.88h0.3c48.44 0 89.67 14.71 119.26 42.55 28.52 26.83 44.29 64.9 44.42 107.21l18.71 512.66c0.2 5.47-3.1 10.47-8.2 12.44-1.53 0.6-3.09 0.88-4.64 0.88zM623.28 738.17c57.81 0 116.72 21.4 158.49 56.24l-17.54-480.56c0-0.15-0.01-0.3-0.01-0.45-0.13-74.41-55.59-124.36-138.03-124.36h-0.25c-41.89 0.05-77.08 12.45-101.79 35.84-23.63 22.38-36.08 53.12-36.02 88.9 0 0.15 0 0.29-0.01 0.44l-15.46 479.45c40.54-35.53 93.71-55.43 150.33-55.5h0.29zM623 751z" fill="#441B00" p-id="13571"></path><path d="M456.62 803.65a170.65 142.8 0 1 0 341.3 0 170.65 142.8 0 1 0-341.3 0Z" fill="#F88E20" p-id="13572"></path><path d="M627.26 959.28c-48.48 0-94.18-15.85-128.7-44.65-35.25-29.41-54.7-68.74-54.77-110.74-0.07-42.01 19.24-81.39 54.38-110.89 34.49-28.95 80.24-44.92 128.83-44.98h0.28c48.48 0 94.18 15.85 128.7 44.65 35.25 29.41 54.7 68.74 54.77 110.74 0.08 42.01-19.24 81.39-54.38 110.89-34.49 28.94-80.24 44.92-128.83 44.98h-0.28z m0.02-285.6h-0.24c-42.57 0.05-82.48 13.89-112.36 38.97-29.22 24.53-45.28 56.91-45.22 91.18 0.13 71.6 70.9 129.77 157.81 129.78h0.25c42.57-0.05 82.48-13.89 112.36-38.97 29.22-24.52 45.28-56.91 45.22-91.18-0.14-71.6-70.92-129.78-157.82-129.78z" fill="#441B00" p-id="13573"></path><path d="M241.11 756.42c69.03-0.09 129.75 25.95 166.72 69.83l-16.94-512.87c-0.14-78.62-57.18-137.29-151.13-137.17-93.96 0.12-150.76 58.98-150.62 137.6L73.66 826.25c36.77-44.22 98.18-69.74 167.45-69.83z" fill="#FFFFFF" p-id="13574"></path><path d="M407.83 839.09c-3.71 0-7.33-1.61-9.82-4.57-34.95-41.49-92-65.27-156.56-65.27h-0.33c-65.77 0.08-123.21 23.85-157.6 65.2-3.5 4.21-9.29 5.74-14.41 3.8a12.823 12.823 0 0 1-8.28-12.39L76.3 313.62c-0.02-42.32 15.61-80.45 44.04-107.37 29.55-27.99 70.84-42.81 119.41-42.88h0.3c48.44 0 89.67 14.71 119.26 42.55 28.53 26.84 44.3 64.91 44.42 107.23l16.94 512.68c0.18 5.46-3.12 10.44-8.23 12.4-1.51 0.58-3.07 0.86-4.61 0.86z m-166.38-95.5c59.2 0 113.06 18.25 152.49 50.93L378.06 313.8c0-0.13-0.01-0.27-0.01-0.4-0.13-74.41-55.59-124.36-138.03-124.36h-0.25c-41.89 0.05-77.09 12.45-101.79 35.84-23.63 22.38-36.08 53.12-36.02 88.9 0 0.14 0 0.27-0.01 0.41l-14.5 480.27c39.24-32.56 93.49-50.8 153.63-50.87h0.37z" fill="#441B00" p-id="13575"></path><path d="M70.46 803.65a170.65 142.8 0 1 0 341.3 0 170.65 142.8 0 1 0-341.3 0Z" fill="#F88E20" p-id="13576"></path><path d="M241.1 959.28c-48.48 0-94.18-15.85-128.7-44.65-35.25-29.41-54.7-68.74-54.77-110.74-0.07-42.01 19.24-81.39 54.38-110.89 34.49-28.95 80.24-44.92 128.82-44.98h0.28c48.48 0 94.18 15.85 128.7 44.65 35.25 29.41 54.7 68.74 54.77 110.74 0.07 42.01-19.24 81.39-54.38 110.89-34.49 28.94-80.24 44.92-128.82 44.98h-0.28z m0.01-285.6h-0.24c-42.57 0.05-82.48 13.89-112.36 38.97-29.22 24.53-45.28 56.91-45.22 91.18 0.13 71.6 70.9 129.77 157.81 129.78h0.24c42.57-0.05 82.48-13.89 112.36-38.97 29.22-24.52 45.28-56.91 45.22-91.18-0.12-71.6-70.9-129.78-157.81-129.78z" fill="#441B00" p-id="13577"></path><path d="M435.94 571.92c69.03-0.07 132.16 25.98 169.13 62.13l-19.13-443.49c-0.14-64.77-57.18-113.1-151.13-113.01-93.96 0.1-150.76 48.59-150.62 113.36l-17.38 442.61c36.77-36.43 99.86-61.53 169.13-61.6z" fill="#FFFFFF" p-id="13578"></path><path d="M605.07 646.88c-3.29 0-6.53-1.26-8.97-3.66-36.89-36.08-98.14-58.47-159.88-58.47h-0.26c-62.79 0.06-124.14 22.24-160.11 57.88a12.828 12.828 0 1 1-21.85-9.62l17.37-442.35c0-30.82 11.46-58.6 33.16-80.37 29.24-29.33 75.51-45.52 130.28-45.58h0.29c47.98 0 88.89 12.05 118.33 34.87 29.1 22.55 45.2 54.74 45.36 90.67l19.11 443.23c0.23 5.26-2.78 10.13-7.59 12.27-1.69 0.77-3.47 1.13-5.24 1.13z m-168.86-87.79c56.75 0 113.44 17.44 154.79 46.68l-17.88-414.66c-0.01-0.17-0.01-0.35-0.01-0.52-0.06-28.35-12.31-52.81-35.41-70.71-24.89-19.29-60.37-29.49-102.6-29.49h-0.27c-47.91 0.05-87.73 13.56-112.13 38.03-16.85 16.9-25.72 38.5-25.67 62.47 0 0.18 0 0.35-0.01 0.53l-16.25 413.8c15.75-11.16 34-20.71 53.94-28.15 31.4-11.72 66.4-17.94 101.23-17.97 0.08-0.01 0.18-0.01 0.27-0.01z m-0.27 12.83h0.01-0.01z" fill="#441B00" p-id="13579"></path><path d="M265.52 613.62a170.65 142.8 0 1 0 341.3 0 170.65 142.8 0 1 0-341.3 0Z" fill="#F88E20" p-id="13580"></path><path d="M436.16 769.25c-48.48 0-94.18-15.85-128.7-44.65-35.25-29.41-54.7-68.74-54.77-110.74-0.07-42.01 19.24-81.39 54.38-110.89 34.49-28.94 80.24-44.92 128.82-44.98l0.02 12.83-0.02-12.83h0.28c48.48 0 94.18 15.85 128.7 44.65 35.25 29.41 54.7 68.74 54.77 110.74 0.08 42.01-19.24 81.39-54.38 110.89-34.49 28.94-80.24 44.92-128.82 44.98h-0.28z m0.01-285.6h-0.24c-42.57 0.05-82.48 13.89-112.36 38.97-29.22 24.52-45.28 56.91-45.22 91.18 0.13 71.6 70.9 129.77 157.81 129.78h0.24c42.57-0.05 82.48-13.89 112.36-38.97 29.22-24.52 45.28-56.91 45.22-91.18-0.13-71.6-70.9-129.78-157.81-129.78zM139.8 701.58c-7.09 0-12.83-5.75-12.83-12.83V571.92c0-7.09 5.75-12.83 12.83-12.83s12.83 5.75 12.83 12.83v116.83c0 7.09-5.75 12.83-12.83 12.83z" fill="#441B00" p-id="13581"></path><path d="M339.55 508.76c-7.09 0-12.83-5.75-12.83-12.83v-109.8c0-7.09 5.75-12.83 12.83-12.83s12.83 5.75 12.83 12.83v109.8c0 7.08-5.75 12.83-12.83 12.83z" fill="#441B00" p-id="13582"></path><path d="M218.91 858.99c-61.33-10.47-62.84-53.63-62.88-55.46v0.12h-0.01c0-0.04 0.01-0.08 0.01-0.12 0-7.14-5.25-11.7-12.39-11.7-7.14 0-13.27 4.67-13.27 11.82 0 1.78 0.31 17.91 11 35.86 9.77 16.4 30.4 37.47 73.22 44.79 0.73 0.13 1.46 0.19 2.18 0.19 6.14 0 11.57-4.42 12.63-10.67 1.19-7.01-3.5-13.64-10.49-14.83zM415.25 668.96c-55.74-9.52-62.07-46.02-62.79-53.98 0.03-0.36 0.05-0.72 0.05-1.08 0-7.13-5.78-12.91-12.91-12.91-7.03 0-12.74 5.63-12.89 12.62h-0.01v0.36c0.05 2.96 0.81 18.4 11 35.5 9.77 16.4 30.4 37.47 73.22 44.79 0.73 0.13 1.46 0.19 2.18 0.19 6.14 0 11.57-4.42 12.63-10.67 1.21-6.99-3.49-13.62-10.48-14.82zM604.02 858.99c-61.33-10.47-62.84-53.63-62.88-55.46v0.12h-0.18c-0.28-6.83-5.89-12.28-12.79-12.28-7.08 0-12.81 5.74-12.81 12.81 0 0.9 0.09 1.78 0.27 2.63 0.49 5.85 2.52 18.72 10.85 32.7 9.77 16.4 30.4 37.47 73.22 44.79 0.73 0.13 1.46 0.19 2.18 0.19 6.14 0 11.57-4.42 12.63-10.67 1.2-7.01-3.5-13.64-10.49-14.83z" fill="#FFFFFF" p-id="13583"></path></svg>